  0
SECTION
  2
HEADER
  9
$ANGBASE
  50
0.0
  9
$ANGDIR
  70
1
  9
$MEASUREMENT
  70
0
  0
ENDSEC
  0
SECTION
  2
TABLES
  0
TABLE
  2
LTYPE
  70
4
  0
LTYPE
  5
40F
  2
CONTINUOUS
  70
0
  3
Solid line
  72
65
  73
0
  40
0.0
  0
LTYPE
  5
410
  2
DASHDOT
 70
0
  3
Dash Dot ____ _ ____ _
 72
65
 73
4
 40
2.0
 49
1.25
 49
-0.25
 49
0.25
 49
-0.25
  0
LTYPE
  5
411
  2
DASHED
 70
0
  3
Dashed __ __ __ __ __
 72
65
 73
2
 40
0.75
 49
0.5
 49
-0.25
  0
LTYPE
  5
43B
  2
DOTTED
 70
0
  3
Dotted .  .  .  .
 72
65
 73
2
 40
0.2
 49
0.0
 49
-0.2
  0
ENDTAB
  0
TABLE
  2
STYLE
  70
4
  0
STYLE
  2
KICAD
  70
0
  40
0
  41
1
  42
1
  50
0
  71
0
  3
isocp.shx
  0
STYLE
  2
KICADB
  70
0
  40
0
  41
1
  42
1
  50
0
  71
0
  3
isocp.shx
  0
STYLE
  2
KICADI
  70
0
  40
0
  41
1
  42
1
  50
15
  71
0
  3
isocp.shx
  0
STYLE
  2
KICADBI
  70
0
  40
0
  41
1
  42
1
  50
15
  71
0
  3
isocp.shx
  0
ENDTAB
  0
TABLE
  2
LAYER
  70
1
  0
LAYER
  2
BLACK
  70
0
  62
7
  6
CONTINUOUS
  0
ENDTAB
  0
ENDSEC
  0
SECTION
  2
ENTITIES
0
LINE
8
BLACK
6
CONTINUOUS
10
8.3587598425196852
20
-0.7460629921259843
11
8.3695513779527548
21
-0.74677031496063
0
LINE
8
BLACK
6
CONTINUOUS
10
8.3695513779527548
20
-0.74677031496063
11
8.3801582677165349
21
-0.7488801574803149
0
LINE
8
BLACK
6
CONTINUOUS
10
8.3801582677165349
20
-0.7488801574803149
11
8.3903990157480308
21
-0.7523564173228346
0
LINE
8
BLACK
6
CONTINUOUS
10
8.3903990157480308
20
-0.7523564173228346
11
8.40009842519685
21
-0.7571396456692914
0
LINE
8
BLACK
6
CONTINUOUS
10
8.40009842519685
20
-0.7571396456692914
11
8.4090905118110228
21
-0.7631479527559055
0
LINE
8
BLACK
6
CONTINUOUS
10
8.4090905118110228
20
-0.7631479527559055
11
8.4172214173228337
21
-0.7702785826771653
0
LINE
8
BLACK
6
CONTINUOUS
10
8.4172214173228337
20
-0.7702785826771653
11
8.4243520472440938
21
-0.7784094881889764
0
LINE
8
BLACK
6
CONTINUOUS
10
8.4243520472440938
20
-0.7784094881889764
11
8.4303603543307091
21
-0.7874015748031495
0
LINE
8
BLACK
6
CONTINUOUS
10
8.4303603543307091
20
-0.7874015748031495
11
8.4351435826771652
21
-0.7971009842519685
0
LINE
8
BLACK
6
CONTINUOUS
10
8.4351435826771652
20
-0.7971009842519685
11
8.4386198425196852
21
-0.8073417322834645
0
LINE
8
BLACK
6
CONTINUOUS
10
8.4386198425196852
20
-0.8073417322834645
11
8.4407296850393703
21
-0.8179486220472441
0
LINE
8
BLACK
6
CONTINUOUS
10
8.4407296850393703
20
-0.8179486220472441
11
8.4414370078740149
21
-0.8287401574803149
0
LINE
8
BLACK
6
CONTINUOUS
10
8.4414370078740149
20
-0.8287401574803149
11
8.4414370078740149
21
-3.6712598425196847
0
LINE
8
BLACK
6
CONTINUOUS
10
8.4414370078740149
20
-3.6712598425196847
11
8.4407296850393703
21
-3.6820513779527557
0
LINE
8
BLACK
6
CONTINUOUS
10
8.4407296850393703
20
-3.6820513779527557
11
8.4386198425196852
21
-3.6926582677165354
0
LINE
8
BLACK
6
CONTINUOUS
10
8.4386198425196852
20
-3.6926582677165354
11
8.4351435826771652
21
-3.7028990157480313
0
LINE
8
BLACK
6
CONTINUOUS
10
8.4351435826771652
20
-3.7028990157480313
11
8.4303603543307091
21
-3.7125984251968505
0
LINE
8
BLACK
6
CONTINUOUS
10
8.4303603543307091
20
-3.7125984251968505
11
8.4243520472440938
21
-3.7215905118110237
0
LINE
8
BLACK
6
CONTINUOUS
10
8.4243520472440938
20
-3.7215905118110237
11
8.4172214173228337
21
-3.7297214173228346
0
LINE
8
BLACK
6
CONTINUOUS
10
8.4172214173228337
20
-3.7297214173228346
11
8.4090905118110228
21
-3.7368520472440943
0
LINE
8
BLACK
6
CONTINUOUS
10
8.4090905118110228
20
-3.7368520472440943
11
8.40009842519685
21
-3.7428603543307086
0
LINE
8
BLACK
6
CONTINUOUS
10
8.40009842519685
20
-3.7428603543307086
11
8.3903990157480308
21
-3.7476435826771652
0
LINE
8
BLACK
6
CONTINUOUS
10
8.3903990157480308
20
-3.7476435826771652
11
8.3801582677165349
21
-3.7511198425196848
0
LINE
8
BLACK
6
CONTINUOUS
10
8.3801582677165349
20
-3.7511198425196848
11
8.3695513779527548
21
-3.7532296850393698
0
LINE
8
BLACK
6
CONTINUOUS
10
8.3695513779527548
20
-3.7532296850393698
11
8.3587598425196852
21
-3.7539370078740157
0
LINE
8
BLACK
6
CONTINUOUS
10
8.3587598425196852
20
-3.7539370078740157
11
0.8287401574803149
21
-3.7539370078740157
0
LINE
8
BLACK
6
CONTINUOUS
10
0.8287401574803149
20
-3.7539370078740157
11
0.8179486220472441
21
-3.7532296850393698
0
LINE
8
BLACK
6
CONTINUOUS
10
0.8179486220472441
20
-3.7532296850393698
11
0.8073417322834645
21
-3.7511198425196848
0
LINE
8
BLACK
6
CONTINUOUS
10
0.8073417322834645
20
-3.7511198425196848
11
0.7971009842519685
21
-3.7476435826771652
0
LINE
8
BLACK
6
CONTINUOUS
10
0.7971009842519685
20
-3.7476435826771652
11
0.7874015748031495
21
-3.7428603543307086
0
LINE
8
BLACK
6
CONTINUOUS
10
0.7874015748031495
20
-3.7428603543307086
11
0.7784094881889764
21
-3.7368520472440943
0
LINE
8
BLACK
6
CONTINUOUS
10
0.7784094881889764
20
-3.7368520472440943
11
0.7702785826771653
21
-3.7297214173228346
0
LINE
8
BLACK
6
CONTINUOUS
10
0.7702785826771653
20
-3.7297214173228346
11
0.7631479527559055
21
-3.7215905118110237
0
LINE
8
BLACK
6
CONTINUOUS
10
0.7631479527559055
20
-3.7215905118110237
11
0.7571396456692914
21
-3.7125984251968505
0
LINE
8
BLACK
6
CONTINUOUS
10
0.7571396456692914
20
-3.7125984251968505
11
0.7523564173228346
21
-3.7028990157480313
0
LINE
8
BLACK
6
CONTINUOUS
10
0.7523564173228346
20
-3.7028990157480313
11
0.7488801574803149
21
-3.6926582677165354
0
LINE
8
BLACK
6
CONTINUOUS
10
0.7488801574803149
20
-3.6926582677165354
11
0.74677031496063
21
-3.6820513779527557
0
LINE
8
BLACK
6
CONTINUOUS
10
0.74677031496063
20
-3.6820513779527557
11
0.7460629921259843
21
-3.6712598425196847
0
LINE
8
BLACK
6
CONTINUOUS
10
0.7460629921259843
20
-3.6712598425196847
11
0.7460629921259843
21
-0.8287401574803149
0
LINE
8
BLACK
6
CONTINUOUS
10
0.7460629921259843
20
-0.8287401574803149
11
0.74677031496063
21
-0.8179486220472441
0
LINE
8
BLACK
6
CONTINUOUS
10
0.74677031496063
20
-0.8179486220472441
11
0.7488801574803149
21
-0.8073417322834645
0
LINE
8
BLACK
6
CONTINUOUS
10
0.7488801574803149
20
-0.8073417322834645
11
0.7523564173228346
21
-0.7971009842519685
0
LINE
8
BLACK
6
CONTINUOUS
10
0.7523564173228346
20
-0.7971009842519685
11
0.7571396456692914
21
-0.7874015748031495
0
LINE
8
BLACK
6
CONTINUOUS
10
0.7571396456692914
20
-0.7874015748031495
11
0.7631479527559055
21
-0.7784094881889764
0
LINE
8
BLACK
6
CONTINUOUS
10
0.7631479527559055
20
-0.7784094881889764
11
0.7702785826771653
21
-0.7702785826771653
0
LINE
8
BLACK
6
CONTINUOUS
10
0.7702785826771653
20
-0.7702785826771653
11
0.7784094881889764
21
-0.7631479527559055
0
LINE
8
BLACK
6
CONTINUOUS
10
0.7784094881889764
20
-0.7631479527559055
11
0.7874015748031495
21
-0.7571396456692914
0
LINE
8
BLACK
6
CONTINUOUS
10
0.7874015748031495
20
-0.7571396456692914
11
0.7971009842519685
21
-0.7523564173228346
0
LINE
8
BLACK
6
CONTINUOUS
10
0.7971009842519685
20
-0.7523564173228346
11
0.8073417322834645
21
-0.7488801574803149
0
LINE
8
BLACK
6
CONTINUOUS
10
0.8073417322834645
20
-0.7488801574803149
11
0.8179486220472441
21
-0.74677031496063
0
LINE
8
BLACK
6
CONTINUOUS
10
0.8179486220472441
20
-0.74677031496063
11
0.8287401574803149
21
-0.7460629921259843
0
LINE
8
BLACK
6
CONTINUOUS
10
0.8287401574803149
20
-0.7460629921259843
11
8.3587598425196852
21
-0.7460629921259843
0
LINE
8
BLACK
6
CONTINUOUS
10
0.8287401574803149
20
-0.7539370078740157
11
0.8238372834645669
21
-0.7539370078740157
0
LINE
8
BLACK
6
CONTINUOUS
10
0.8238372834645669
20
-0.7539370078740157
11
0.8141154724409448
21
-0.7552168897637795
0
LINE
8
BLACK
6
CONTINUOUS
10
0.8141154724409448
20
-0.7552168897637795
11
0.8046438976377952
21
-0.7577548031496063
0
LINE
8
BLACK
6
CONTINUOUS
10
0.8046438976377952
20
-0.7577548031496063
11
0.7955845669291338
21
-0.7615072834645669
0
LINE
8
BLACK
6
CONTINUOUS
10
0.7955845669291338
20
-0.7615072834645669
11
0.7870925590551181
21
-0.7664101574803149
0
LINE
8
BLACK
6
CONTINUOUS
10
0.7870925590551181
20
-0.7664101574803149
11
0.7793131889763779
21
-0.7723794881889764
0
LINE
8
BLACK
6
CONTINUOUS
10
0.7793131889763779
20
-0.7723794881889764
11
0.7723794881889764
21
-0.7793131889763779
0
LINE
8
BLACK
6
CONTINUOUS
10
0.7723794881889764
20
-0.7793131889763779
11
0.7664101574803149
21
-0.7870925590551181
0
LINE
8
BLACK
6
CONTINUOUS
10
0.7664101574803149
20
-0.7870925590551181
11
0.7615072834645669
21
-0.7955845669291338
0
LINE
8
BLACK
6
CONTINUOUS
10
0.7615072834645669
20
-0.7955845669291338
11
0.7577548031496063
21
-0.8046438976377952
0
LINE
8
BLACK
6
CONTINUOUS
10
0.7577548031496063
20
-0.8046438976377952
11
0.7552168897637795
21
-0.8141154724409448
0
LINE
8
BLACK
6
CONTINUOUS
10
0.7552168897637795
20
-0.8141154724409448
11
0.7539370078740157
21
-0.8238372834645669
0
LINE
8
BLACK
6
CONTINUOUS
10
0.7539370078740157
20
-0.8238372834645669
11
0.7539370078740157
21
-0.8287401574803149
0
LINE
8
BLACK
6
CONTINUOUS
10
0.7539370078740157
20
-0.8287401574803149
11
0.7539370078740157
21
-3.6712598425196847
0
LINE
8
BLACK
6
CONTINUOUS
10
0.7539370078740157
20
-3.6712598425196847
11
0.7539370078740157
21
-3.6761627165354329
0
LINE
8
BLACK
6
CONTINUOUS
10
0.7539370078740157
20
-3.6761627165354329
11
0.7552168897637795
21
-3.6858845275590548
0
LINE
8
BLACK
6
CONTINUOUS
10
0.7552168897637795
20
-3.6858845275590548
11
0.7577548031496063
21
-3.6953561023622048
0
LINE
8
BLACK
6
CONTINUOUS
10
0.7577548031496063
20
-3.6953561023622048
11
0.7615072834645669
21
-3.7044154330708658
0
LINE
8
BLACK
6
CONTINUOUS
10
0.7615072834645669
20
-3.7044154330708658
11
0.7664101574803149
21
-3.7129074409448819
0
LINE
8
BLACK
6
CONTINUOUS
10
0.7664101574803149
20
-3.7129074409448819
11
0.7723794881889764
21
-3.7206868110236218
0
LINE
8
BLACK
6
CONTINUOUS
10
0.7723794881889764
20
-3.7206868110236218
11
0.7793131889763779
21
-3.7276205118110237
0
LINE
8
BLACK
6
CONTINUOUS
10
0.7793131889763779
20
-3.7276205118110237
11
0.7870925590551181
21
-3.733589842519685
0
LINE
8
BLACK
6
CONTINUOUS
10
0.7870925590551181
20
-3.733589842519685
11
0.7955845669291338
21
-3.7384927165354331
0
LINE
8
BLACK
6
CONTINUOUS
10
0.7955845669291338
20
-3.7384927165354331
11
0.8046438976377952
21
-3.7422451968503938
0
LINE
8
BLACK
6
CONTINUOUS
10
0.8046438976377952
20
-3.7422451968503938
11
0.8141154724409448
21
-3.7447831102362206
0
LINE
8
BLACK
6
CONTINUOUS
10
0.8141154724409448
20
-3.7447831102362206
11
0.8238372834645669
21
-3.7460629921259843
0
LINE
8
BLACK
6
CONTINUOUS
10
0.8238372834645669
20
-3.7460629921259843
11
0.8287401574803149
21
-3.7460629921259843
0
LINE
8
BLACK
6
CONTINUOUS
10
0.8287401574803149
20
-3.7460629921259843
11
8.3587598425196852
21
-3.7460629921259843
0
LINE
8
BLACK
6
CONTINUOUS
10
8.3587598425196852
20
-3.7460629921259843
11
8.3636627165354334
21
-3.7460629921259843
0
LINE
8
BLACK
6
CONTINUOUS
10
8.3636627165354334
20
-3.7460629921259843
11
8.3733845275590557
21
-3.7447831102362206
0
LINE
8
BLACK
6
CONTINUOUS
10
8.3733845275590557
20
-3.7447831102362206
11
8.3828561023622044
21
-3.7422451968503938
0
LINE
8
BLACK
6
CONTINUOUS
10
8.3828561023622044
20
-3.7422451968503938
11
8.3919154330708654
21
-3.7384927165354331
0
LINE
8
BLACK
6
CONTINUOUS
10
8.3919154330708654
20
-3.7384927165354331
11
8.4004074409448819
21
-3.733589842519685
0
LINE
8
BLACK
6
CONTINUOUS
10
8.4004074409448819
20
-3.733589842519685
11
8.4081868110236222
21
-3.7276205118110237
0
LINE
8
BLACK
6
CONTINUOUS
10
8.4081868110236222
20
-3.7276205118110237
11
8.4151205118110237
21
-3.7206868110236218
0
LINE
8
BLACK
6
CONTINUOUS
10
8.4151205118110237
20
-3.7206868110236218
11
8.4210898425196845
21
-3.7129074409448819
0
LINE
8
BLACK
6
CONTINUOUS
10
8.4210898425196845
20
-3.7129074409448819
11
8.4259927165354327
21
-3.7044154330708658
0
LINE
8
BLACK
6
CONTINUOUS
10
8.4259927165354327
20
-3.7044154330708658
11
8.4297451968503943
21
-3.6953561023622048
0
LINE
8
BLACK
6
CONTINUOUS
10
8.4297451968503943
20
-3.6953561023622048
11
8.4322831102362201
21
-3.6858845275590548
0
LINE
8
BLACK
6
CONTINUOUS
10
8.4322831102362201
20
-3.6858845275590548
11
8.4335629921259834
21
-3.6761627165354329
0
LINE
8
BLACK
6
CONTINUOUS
10
8.4335629921259834
20
-3.6761627165354329
11
8.4335629921259834
21
-3.6712598425196847
0
LINE
8
BLACK
6
CONTINUOUS
10
8.4335629921259834
20
-3.6712598425196847
11
8.4335629921259834
21
-0.8287401574803149
0
LINE
8
BLACK
6
CONTINUOUS
10
8.4335629921259834
20
-0.8287401574803149
11
8.4335629921259834
21
-0.8238372834645669
0
LINE
8
BLACK
6
CONTINUOUS
10
8.4335629921259834
20
-0.8238372834645669
11
8.4322831102362201
21
-0.8141154724409448
0
LINE
8
BLACK
6
CONTINUOUS
10
8.4322831102362201
20
-0.8141154724409448
11
8.4297451968503943
21
-0.8046438976377952
0
LINE
8
BLACK
6
CONTINUOUS
10
8.4297451968503943
20
-0.8046438976377952
11
8.4259927165354327
21
-0.7955845669291338
0
LINE
8
BLACK
6
CONTINUOUS
10
8.4259927165354327
20
-0.7955845669291338
11
8.4210898425196845
21
-0.7870925590551181
0
LINE
8
BLACK
6
CONTINUOUS
10
8.4210898425196845
20
-0.7870925590551181
11
8.4151205118110237
21
-0.7793131889763779
0
LINE
8
BLACK
6
CONTINUOUS
10
8.4151205118110237
20
-0.7793131889763779
11
8.4081868110236222
21
-0.7723794881889764
0
LINE
8
BLACK
6
CONTINUOUS
10
8.4081868110236222
20
-0.7723794881889764
11
8.4004074409448819
21
-0.7664101574803149
0
LINE
8
BLACK
6
CONTINUOUS
10
8.4004074409448819
20
-0.7664101574803149
11
8.3919154330708654
21
-0.7615072834645669
0
LINE
8
BLACK
6
CONTINUOUS
10
8.3919154330708654
20
-0.7615072834645669
11
8.3828561023622044
21
-0.7577548031496063
0
LINE
8
BLACK
6
CONTINUOUS
10
8.3828561023622044
20
-0.7577548031496063
11
8.3733845275590557
21
-0.7552168897637795
0
LINE
8
BLACK
6
CONTINUOUS
10
8.3733845275590557
20
-0.7552168897637795
11
8.3636627165354334
21
-0.7539370078740157
0
LINE
8
BLACK
6
CONTINUOUS
10
8.3636627165354334
20
-0.7539370078740157
11
8.3587598425196852
21
-0.7539370078740157
0
LINE
8
BLACK
6
CONTINUOUS
10
8.3587598425196852
20
-0.7539370078740157
11
0.8287401574803149
21
-0.7539370078740157
  0
ENDSEC
  0
EOF
